<?xml version="1.0" standalone="no"?><!DOCTYPE svg PUBLIC "-//W3C//DTD SVG 1.1//EN" "http://www.w3.org/Graphics/SVG/1.1/DTD/svg11.dtd"><svg t="1641357856266" class="icon" viewBox="0 0 1024 1024" version="1.1" xmlns="http://www.w3.org/2000/svg" p-id="1892" width="32" height="32" xmlns:xlink="http://www.w3.org/1999/xlink"><defs><style type="text/css"></style></defs><path d="M257.621333 654.933333l92.373334 53.333334 282.069333-463.616 0.597333-1.024a51.413333 51.413333 0 0 0-18.773333-70.229334 55.296 55.296 0 0 0-74.922667 19.2L257.621333 654.933333z m-25.813333 59.008l-9.429333 106.325334 87.338666-61.312-77.909333-45.013334z m414.08-595.968a115.413333 115.413333 0 0 1 42.24 157.653334l-1.365333 2.261333-308.394667 506.88a40.533333 40.533333 0 0 1-11.306667 12.117333l-149.248 104.789334a40.533333 40.533333 0 0 1-63.658666-36.778667l16.128-181.418667a40.533333 40.533333 0 0 1 5.717333-17.493333L484.266667 159.36a119.296 119.296 0 0 1 161.621333-41.344zM426.666667 928a32 32 0 1 1 0-64h426.666666a32 32 0 1 1 0 64H426.666667z" fill="#8a8a8a" p-id="1893"></path></svg>