<?xml version="1.0" standalone="no"?><!DOCTYPE svg PUBLIC "-//W3C//DTD SVG 1.1//EN" "http://www.w3.org/Graphics/SVG/1.1/DTD/svg11.dtd"><svg t="1641358985679" class="icon" viewBox="0 0 1024 1024" version="1.1" xmlns="http://www.w3.org/2000/svg" p-id="40217" xmlns:xlink="http://www.w3.org/1999/xlink" width="48" height="48"><defs><style type="text/css"></style></defs><path d="M829.793103 617.224828H194.206897v275.932689c0 40.836414 30.825931 73.957517 68.855172 73.957517H600.275862v-174.433103C600.275862 744.92469 636.574897 706.206897 681.348414 706.206897H829.793103v-88.982069z m52.965518 0v163.416275c0 7.468138-2.736552 14.618483-7.591724 19.950345L678.43531 1015.490207a25.6 25.6 0 0 1-18.891034 8.509793H263.062069C195.795862 1024 141.241379 965.420138 141.241379 893.157517V617.224828H88.275862V176.551724h52.965517V130.842483C141.241379 58.579862 195.795862 0 263.062069 0h497.875862C828.204138 0 882.758621 58.579862 882.758621 130.842483V176.551724h52.965517v440.673104h-52.965517zM829.793103 176.551724V130.842483c0-40.836414-30.825931-73.957517-68.855172-73.957517H263.062069c-38.029241 0-68.855172 33.121103-68.855172 73.975172V176.551724h635.586206z m-175.474758 784.136828L829.793103 769.006345v-5.155311h-148.444689c-14.936276 0-27.012414 12.905931-27.012414 28.830897v168.006621zM200.033103 272.489931V512h39.247449v-91.912828h59.374345c58.368 0 87.552-24.823172 87.552-74.134069 0-48.975448-29.184-73.463172-86.881104-73.463172H200.033103z m39.247449 33.544828h57.026207c17.107862 0 29.854897 3.019034 37.905655 9.392551 8.050759 6.038069 12.411586 16.101517 12.411586 30.525793 0 14.424276-4.025379 24.823172-12.076138 31.19669-8.050759 6.038069-20.797793 9.392552-38.241103 9.392552h-57.026207v-80.507586z m183.966896-33.544828V512h87.552c38.912 0 68.096-10.734345 88.222897-32.203034 19.120552-20.462345 28.848552-49.646345 28.848552-87.552 0-38.241103-9.728-67.425103-28.848552-87.552-20.126897-21.46869-49.310897-32.203034-88.222897-32.203035h-87.569655z m39.247449 33.544828h40.924689c29.837241 0 51.659034 6.708966 65.412414 20.462344 13.417931 13.417931 20.126897 35.557517 20.126897 65.747863 0 29.519448-6.708966 51.323586-20.126897 65.412413-13.771034 13.753379-35.557517 20.797793-65.412414 20.797793h-40.924689v-172.420413z m205.771034-33.544828V512h39.247448v-106.001655h117.053793v-33.544828h-117.053793v-66.418758h124.115862v-33.544828H668.248276z" p-id="40218" fill="#2483ff"></path></svg>