<?xml version="1.0" standalone="no"?><!DOCTYPE svg PUBLIC "-//W3C//DTD SVG 1.1//EN" "http://www.w3.org/Graphics/SVG/1.1/DTD/svg11.dtd"><svg t="1645583912625" class="icon" viewBox="0 0 1024 1024" version="1.1" xmlns="http://www.w3.org/2000/svg" p-id="2181" width="32" height="32" xmlns:xlink="http://www.w3.org/1999/xlink"><defs><style type="text/css"></style></defs><path d="M823.466667 110.933333H200.533333C136.533333 110.933333 85.333333 162.133333 85.333333 226.133333v452.266667c0 64 51.2 119.466667 115.2 119.466667H298.666667l42.666666 102.4c8.533333 21.333333 38.4 25.6 51.2 4.266666l76.8-106.666666h349.866667c64 0 115.2-51.2 115.2-119.466667V226.133333c4.266667-64-46.933333-115.2-110.933333-115.2z m-554.666667 405.333334c-29.866667 0-51.2-25.6-51.2-55.466667 0-29.866667 25.6-55.466667 51.2-55.466667s51.2 25.6 51.2 55.466667c0 34.133333-21.333333 55.466667-51.2 55.466667z m243.2 0c-29.866667 0-51.2-25.6-51.2-55.466667 0-29.866667 25.6-55.466667 51.2-55.466667s51.2 25.6 51.2 55.466667c0 34.133333-21.333333 55.466667-51.2 55.466667z m243.2 0c-29.866667 0-51.2-25.6-51.2-55.466667 0-29.866667 25.6-55.466667 51.2-55.466667s51.2 25.6 51.2 55.466667c4.266667 34.133333-21.333333 55.466667-51.2 55.466667z" p-id="2182" fill="#2483ff"></path></svg>