<?xml version="1.0" standalone="no"?><!DOCTYPE svg PUBLIC "-//W3C//DTD SVG 1.1//EN" "http://www.w3.org/Graphics/SVG/1.1/DTD/svg11.dtd"><svg t="1645534022678" class="icon" viewBox="0 0 1024 1024" version="1.1" xmlns="http://www.w3.org/2000/svg" p-id="3556" width="32" height="32" xmlns:xlink="http://www.w3.org/1999/xlink"><defs><style type="text/css"></style></defs><path d="M389.717333 466.304L387.84 874.666667h310.058667c58.624 0 103.253333-31.317333 112.64-78.293334l63.573333-278.058666a21.333333 21.333333 0 0 0-20.778667-26.069334h-199.210666a64 64 0 0 1-59.306667-87.978666c26.325333-65.237333 39.082667-115.328 39.082667-148.266667 0-18.176-0.853333-34.432-2.432-48.725333a65.28 65.28 0 0 0-44.586667-54.741334V170.666667c0 129.024-68.650667 229.248-197.162667 295.637333z m279.936-79.018667c-4.608 13.098667-9.813333 26.709333-15.530666 40.96H853.333333a85.333333 85.333333 0 0 1 83.2 104.362667L872.874667 810.666667c-15.957333 80.213333-91.221333 128-174.976 128H332.117333a8.533333 8.533333 0 0 1-8.533333-8.533334l2.261333-498.944a8.533333 8.533333 0 0 1 5.12-7.765333C458.88 367.232 522.88 282.965333 522.88 170.666667V128a42.666667 42.666667 0 0 1 42.666667-42.666667h1.066666a129.237333 129.237333 0 0 1 128.426667 114.773334c1.877333 16.810667 2.858667 35.413333 2.858667 55.893333 0 29.184-6.826667 65.28-20.48 108.245333l-7.765334 23.04zM149.333333 490.666667v384h47.018667v-384H149.333333zM251.605333 426.666667c4.821333 0 8.746667 3.84 8.746667 8.533333v494.933333c0 4.693333-3.925333 8.533333-8.746667 8.533334H129.066667A43.221333 43.221333 0 0 1 85.333333 896V469.333333c0-23.552 19.626667-42.666667 43.733334-42.666666h122.538666z" fill="#444444" p-id="3557"></path></svg>