<?xml version="1.0" standalone="no"?><!DOCTYPE svg PUBLIC "-//W3C//DTD SVG 1.1//EN" "http://www.w3.org/Graphics/SVG/1.1/DTD/svg11.dtd"><svg t="1645534062536" class="icon" viewBox="0 0 1024 1024" version="1.1" xmlns="http://www.w3.org/2000/svg" p-id="3716" width="32" height="32" xmlns:xlink="http://www.w3.org/1999/xlink"><defs><style type="text/css"></style></defs><path d="M522.88 170.666667V128a42.666667 42.666667 0 0 1 42.666667-42.666667h1.066666a129.237333 129.237333 0 0 1 128.426667 114.773334c1.877333 16.810667 2.858667 35.413333 2.858667 55.893333 0 42.666667-14.592 100.096-43.776 172.245333H853.333333a85.333333 85.333333 0 0 1 83.2 104.362667L872.874667 810.666667c-15.957333 80.213333-91.221333 128-174.976 128H332.117333a8.533333 8.533333 0 0 1-8.533333-8.533334l2.261333-498.944a8.533333 8.533333 0 0 1 5.12-7.765333C458.88 367.232 522.88 282.965333 522.88 170.666667z m-271.274667 256c4.821333 0 8.746667 3.84 8.746667 8.533333v494.933333c0 4.693333-3.925333 8.533333-8.746667 8.533334H129.066667A43.221333 43.221333 0 0 1 85.333333 896V469.333333c0-23.552 19.626667-42.666667 43.733334-42.666666h122.538666z" fill="#2483ff" p-id="3717"></path></svg>