<?xml version="1.0" standalone="no"?><!DOCTYPE svg PUBLIC "-//W3C//DTD SVG 1.1//EN" "http://www.w3.org/Graphics/SVG/1.1/DTD/svg11.dtd"><svg t="1645583894537" class="icon" viewBox="0 0 1024 1024" version="1.1" xmlns="http://www.w3.org/2000/svg" p-id="1825" width="32" height="32" xmlns:xlink="http://www.w3.org/1999/xlink"><defs><style type="text/css"></style></defs><path d="M716.8 921.6c-17.066667 0-29.866667-4.266667-46.933333-12.8l-145.066667-76.8c-8.533333-4.266667-21.333333-4.266667-29.866667 0l-145.066666 76.8c-34.133333 17.066667-72.533333 12.8-102.4-8.533333s-42.666667-59.733333-38.4-93.866667l25.6-162.133333c0-8.533333 0-21.333333-8.533334-25.6l-115.2-115.2c-25.6-25.6-34.133333-64-25.6-98.133334 12.8-34.133333 42.666667-59.733333 76.8-64l162.133334-21.333333c8.533333 0 17.066667-8.533333 25.6-17.066667L426.666667 153.6c17.066667-34.133333 51.2-55.466667 85.333333-55.466667 38.4 0 68.266667 21.333333 85.333333 55.466667L669.866667 298.666667c4.266667 8.533333 12.8 17.066667 25.6 17.066666l162.133333 25.6c38.4 4.266667 68.266667 29.866667 76.8 64 12.8 34.133333 0 72.533333-25.6 98.133334l-115.2 115.2c-8.533333 8.533333-12.8 17.066667-8.533333 25.6L810.666667 810.666667c4.266667 38.4-8.533333 72.533333-38.4 93.866666-17.066667 12.8-38.4 17.066667-55.466667 17.066667zM512 166.4c-12.8 0-21.333333 8.533333-29.866667 17.066667L413.866667 328.533333c-17.066667 29.866667-42.666667 51.2-76.8 55.466667l-157.866667 21.333333c-12.8 0-21.333333 8.533333-25.6 21.333334-4.266667 12.8 0 25.6 8.533333 29.866666l115.2 115.2c21.333333 21.333333 34.133333 55.466667 29.866667 85.333334l-25.6 162.133333c0 12.8 4.266667 21.333333 12.8 29.866667 4.266667 8.533333 17.066667 8.533333 29.866667 4.266666l145.066666-76.8c29.866667-12.8 64-12.8 89.6 0l145.066667 76.8c12.8 4.266667 21.333333 4.266667 34.133333-4.266666 8.533333-8.533333 12.8-17.066667 12.8-29.866667l-25.6-162.133333c-4.266667-29.866667 4.266667-64 29.866667-85.333334l115.2-115.2c8.533333-8.533333 12.8-21.333333 8.533333-29.866666-4.266667-12.8-12.8-21.333333-25.6-21.333334L686.933333 384c-29.866667-4.266667-59.733333-25.6-72.533333-51.2l-72.533333-145.066667c-8.533333-12.8-17.066667-21.333333-29.866667-21.333333z" p-id="1826"></path></svg>