<?xml version="1.0" standalone="no"?><!DOCTYPE svg PUBLIC "-//W3C//DTD SVG 1.1//EN" "http://www.w3.org/Graphics/SVG/1.1/DTD/svg11.dtd"><svg t="1645583902751" class="icon" viewBox="0 0 1024 1024" version="1.1" xmlns="http://www.w3.org/2000/svg" p-id="2003" xmlns:xlink="http://www.w3.org/1999/xlink" width="32" height="32"><defs><style type="text/css"></style></defs><path d="M576 140.8L652.8 298.666667c8.533333 21.333333 29.866667 34.133333 51.2 38.4l174.933333 25.6c55.466667 8.533333 81.066667 76.8 38.4 119.466666l-128 123.733334c-17.066667 17.066667-25.6 38.4-21.333333 59.733333l29.866667 174.933333c8.533333 55.466667-51.2 98.133333-102.4 72.533334l-157.866667-81.066667c-21.333333-8.533333-42.666667-8.533333-64 0l-157.866667 81.066667c-42.666667 25.6-102.4-17.066667-93.866666-72.533334l29.866666-174.933333c4.266667-21.333333-4.266667-46.933333-21.333333-59.733333l-128-123.733334c-42.666667-38.4-17.066667-110.933333 38.4-119.466666l174.933333-25.6c25.6-4.266667 46.933333-17.066667 55.466667-38.4l76.8-157.866667c25.6-51.2 102.4-51.2 128 0z" p-id="2004" fill="#2483ff"></path></svg>