<?xml version="1.0" standalone="no"?><!DOCTYPE svg PUBLIC "-//W3C//DTD SVG 1.1//EN" "http://www.w3.org/Graphics/SVG/1.1/DTD/svg11.dtd"><svg t="1641359317992" class="icon" viewBox="0 0 1024 1024" version="1.1" xmlns="http://www.w3.org/2000/svg" p-id="2791" xmlns:xlink="http://www.w3.org/1999/xlink" width="48" height="48"><defs><style type="text/css"></style></defs><path d="M920.085333 535.744L865.706667 236.8A106.496 106.496 0 0 0 760.917333 149.333333H405.205333A106.133333 106.133333 0 0 0 320 192.618667 106.346667 106.346667 0 0 0 128 256v341.333333a106.432 106.432 0 0 0 209.429333 27.050667c188.202667 54.186667 188.778667 149.290667 188.778667 213.162667 0 33.664 0 79.786667 49.792 79.786666a106.944 106.944 0 0 0 87.424-47.573333c35.989333-49.962667 45.525333-129.429333 26.24-208.426667h125.568a106.538667 106.538667 0 0 0 104.832-125.568zM298.666667 597.333333a64 64 0 0 1-128 0V256a64 64 0 0 1 128 0z m565.632-1.621333a63.701333 63.701333 0 0 1-49.066667 22.954667H661.333333a21.376 21.376 0 0 0-20.266666 28.074666c24.682667 74.048 19.776 153.642667-12.224 198.058667A63.765333 63.765333 0 0 1 576 874.666667a33.962667 33.962667 0 0 1-4.053333-0.298667 117.418667 117.418667 0 0 1-3.072-36.821333c0-68.224-0.64-193.685333-227.541334-256.32V255.872A63.957333 63.957333 0 0 1 405.205333 192h355.712a63.786667 63.786667 0 0 1 62.784 52.458667l54.378667 298.965333a63.509333 63.509333 0 0 1-13.781333 52.266667z" fill="#2483ff" p-id="2792"></path></svg>