<?xml version="1.0" standalone="no"?><!DOCTYPE svg PUBLIC "-//W3C//DTD SVG 1.1//EN" "http://www.w3.org/Graphics/SVG/1.1/DTD/svg11.dtd"><svg t="1641358114019" class="icon" viewBox="0 0 1024 1024" version="1.1" xmlns="http://www.w3.org/2000/svg" p-id="8710" width="32" height="32" xmlns:xlink="http://www.w3.org/1999/xlink"><defs><style type="text/css"></style></defs><path d="M522.828 601.241c-66.286 0-128.605-25.814-175.477-72.685-46.872-46.872-72.685-109.191-72.685-175.477 0-66.285 25.813-128.604 72.685-175.475 46.872-46.871 109.19-72.684 175.477-72.684 66.284 0 128.601 25.813 175.472 72.684 46.871 46.871 72.685 109.189 72.685 175.474 0 66.286-25.813 128.605-72.684 175.477s-109.189 72.686-175.473 72.686z m0-422.321c-96.033 0-174.162 78.127-174.162 174.158 0 96.033 78.129 174.162 174.162 174.162 96.031 0 174.157-78.129 174.157-174.162-0.001-96.031-78.127-174.158-174.157-174.158z" p-id="8711" fill="#8a8a8a"></path><path d="M131.211 938.557a37.11 37.11 0 0 1-7.457-0.759c-20.02-4.097-32.927-23.648-28.83-43.667 9.781-47.792 27.434-94.342 52.468-138.357 24.874-43.733 55.893-82.965 92.195-116.606 37.66-34.899 79.451-62.297 124.213-81.431 47.849-20.454 97.71-30.825 148.199-30.825 50.49 0 100.352 10.371 148.202 30.825 44.762 19.134 86.554 46.531 124.215 81.431 36.302 33.641 67.321 72.873 92.195 116.606 25.034 44.015 42.686 90.565 52.467 138.357 4.097 20.02-8.811 39.57-28.831 43.667-20.02 4.097-39.57-8.811-43.667-28.831-30.988-151.426-168.351-308.055-344.581-308.055-176.225 0-313.587 156.629-344.577 308.055-3.586 17.517-19.003 29.59-36.211 29.59z" p-id="8712" fill="#8a8a8a"></path></svg>